<mxfile host="app.diagrams.net" modified="2023-07-03T05:24:49.946Z" agent="Mozilla/5.0 (Windows NT 10.0; Win64; x64) AppleWebKit/537.36 (KHTML, like Gecko) Chrome/112.0.0.0 YaBrowser/23.5.3.904 Yowser/2.5 Safari/537.36" etag="zhnnHyxwNi4VkS99HZQc" version="21.5.2" type="device">
  <diagram name="Страница 1" id="jpkq7y4-PGBRzC_0zSIr">
    <mxGraphModel dx="1386" dy="767" grid="1" gridSize="10" guides="1" tooltips="1" connect="1" arrows="1" fold="1" page="1" pageScale="1" pageWidth="827" pageHeight="1169" math="0" shadow="0">
      <root>
        <mxCell id="0" />
        <mxCell id="1" parent="0" />
        <mxCell id="mAXIBb8lZ9mhZBGV6BJS-12" value="продолжаем работу&lt;br&gt;" style="rounded=0;whiteSpace=wrap;html=1;" vertex="1" parent="1">
          <mxGeometry x="270" y="20" width="120" height="60" as="geometry" />
        </mxCell>
        <mxCell id="mAXIBb8lZ9mhZBGV6BJS-16" style="edgeStyle=orthogonalEdgeStyle;rounded=0;orthogonalLoop=1;jettySize=auto;html=1;entryX=0;entryY=0.5;entryDx=0;entryDy=0;" edge="1" parent="1" source="mAXIBb8lZ9mhZBGV6BJS-13" target="mAXIBb8lZ9mhZBGV6BJS-14">
          <mxGeometry relative="1" as="geometry" />
        </mxCell>
        <mxCell id="mAXIBb8lZ9mhZBGV6BJS-20" value="да" style="edgeLabel;html=1;align=center;verticalAlign=middle;resizable=0;points=[];" vertex="1" connectable="0" parent="mAXIBb8lZ9mhZBGV6BJS-16">
          <mxGeometry x="-0.619" y="-4" relative="1" as="geometry">
            <mxPoint x="4" y="4" as="offset" />
          </mxGeometry>
        </mxCell>
        <mxCell id="mAXIBb8lZ9mhZBGV6BJS-18" style="edgeStyle=orthogonalEdgeStyle;rounded=0;orthogonalLoop=1;jettySize=auto;html=1;exitX=1;exitY=0.5;exitDx=0;exitDy=0;entryX=0.658;entryY=1.05;entryDx=0;entryDy=0;entryPerimeter=0;" edge="1" parent="1" source="mAXIBb8lZ9mhZBGV6BJS-13" target="mAXIBb8lZ9mhZBGV6BJS-12">
          <mxGeometry relative="1" as="geometry" />
        </mxCell>
        <mxCell id="mAXIBb8lZ9mhZBGV6BJS-13" value="Есть ли еще зависимые ячейки?" style="rounded=0;whiteSpace=wrap;html=1;" vertex="1" parent="1">
          <mxGeometry x="60" y="310" width="120" height="60" as="geometry" />
        </mxCell>
        <mxCell id="mAXIBb8lZ9mhZBGV6BJS-14" value="Очищаем зависимую ячейку" style="rounded=0;whiteSpace=wrap;html=1;" vertex="1" parent="1">
          <mxGeometry x="60" y="170" width="120" height="60" as="geometry" />
        </mxCell>
        <mxCell id="mAXIBb8lZ9mhZBGV6BJS-17" style="edgeStyle=orthogonalEdgeStyle;rounded=0;orthogonalLoop=1;jettySize=auto;html=1;exitX=0.5;exitY=1;exitDx=0;exitDy=0;entryX=0.417;entryY=0;entryDx=0;entryDy=0;entryPerimeter=0;" edge="1" parent="1" source="mAXIBb8lZ9mhZBGV6BJS-15" target="mAXIBb8lZ9mhZBGV6BJS-14">
          <mxGeometry relative="1" as="geometry">
            <mxPoint x="110" y="160" as="targetPoint" />
          </mxGeometry>
        </mxCell>
        <mxCell id="mAXIBb8lZ9mhZBGV6BJS-15" value="Изменилось содержимое ячейки" style="rounded=0;whiteSpace=wrap;html=1;" vertex="1" parent="1">
          <mxGeometry x="50" y="30" width="120" height="60" as="geometry" />
        </mxCell>
        <mxCell id="mAXIBb8lZ9mhZBGV6BJS-19" value="нет&lt;br&gt;" style="text;html=1;align=center;verticalAlign=middle;resizable=0;points=[];autosize=1;strokeColor=none;fillColor=none;" vertex="1" parent="1">
          <mxGeometry x="320" y="188" width="40" height="30" as="geometry" />
        </mxCell>
        <mxCell id="mAXIBb8lZ9mhZBGV6BJS-21" value="да&lt;br&gt;" style="text;html=1;align=center;verticalAlign=middle;resizable=0;points=[];autosize=1;strokeColor=none;fillColor=none;" vertex="1" parent="1">
          <mxGeometry x="100" y="108" width="40" height="30" as="geometry" />
        </mxCell>
      </root>
    </mxGraphModel>
  </diagram>
</mxfile>
